<svg height="24px" width="24px"  fill="#333" xmlns="http://www.w3.org/2000/svg" data-name="Layer 1" viewBox="0 0 100 100" x="0px" y="0px"><title>64</title><g data-name="Group"><path data-name="Compound Path" d="M56,17.3a9,9,0,0,0-12,0L10.4,47.2a3,3,0,0,0,4,4.5l6-5.3V78a7,7,0,0,0,7,7H42a3,3,0,0,0,3-3V63a1,1,0,0,1,1-1h8a1,1,0,0,1,1,1V82a3,3,0,0,0,3,3H72.6a7,7,0,0,0,7-7V46.3l6,5.3a3,3,0,0,0,4-4.5ZM73.6,78a1,1,0,0,1-1,1H61V63a7,7,0,0,0-7-7H46a7,7,0,0,0-7,7V79H27.4a1,1,0,0,1-1-1V41L48,21.8a3,3,0,0,1,4,0L73.6,41Z"></path></g></svg>